<?xml version="1.0" encoding="UTF-8"?>
<svg width="1440px" height="448px" viewBox="0 0 1440 448" version="1.1" xmlns="http://www.w3.org/2000/svg" xmlns:xlink="http://www.w3.org/1999/xlink">
    <!-- Generator: Sketch 52.4 (67378) - http://www.bohemiancoding.com/sketch -->
    <title>Group 2</title>
    <desc>Created with Sketch.</desc>
    <g id="Page-1" stroke="none" stroke-width="1" fill="none" fill-rule="evenodd" opacity="0.1">
        <g id="Homepage-3" transform="translate(0.000000, -2299.000000)" fill="#07689F">
            <g id="Group-2" transform="translate(-402.000000, 2299.000000)">
                <path d="M2045.60602,287.804953 C1970.56554,224.964465 2169.99714,161.804904 1785.5889,80.9024521 C1401.18065,1.95880335e-13 1292.16678,2.76084271e-13 1120.73587,5.68434189e-14 C971.160193,-1.34238058e-13 495.767729,54.8187719 292.588898,114.790535 C235.175514,131.737094 328.443498,125.638533 250.588898,146.956199 C-360.097,314.170442 339.426149,501.968863 324.042055,532.417973 C308.657961,562.867083 2110.84061,600.101418 2088.55773,566.428603 C2051.19782,509.955075 2196.13002,413.856928 2045.60602,287.804953 Z" id="Path"></path>
                <path d="M2060.60602,311.804953 C1985.56554,248.964465 2184.99714,185.804904 1800.5889,104.902452 C1416.18065,24 1307.16678,24 1135.73587,24 C986.160193,24 510.767729,78.8187719 307.588898,138.790535 C250.175514,155.737094 343.443498,149.638533 265.588898,170.956199 C-345.097,338.170442 354.426149,525.968863 339.042055,556.417973 C323.657961,586.867083 2125.84061,624.101418 2103.55773,590.428603 C2066.19782,533.955075 2211.13002,437.856928 2060.60602,311.804953 Z" id="Path"></path>
            </g>
        </g>
    </g>
</svg>