<?xml version="1.0" encoding="UTF-8"?>
<svg width="1440px" height="409px" viewBox="0 0 1440 409" version="1.1" xmlns="http://www.w3.org/2000/svg" xmlns:xlink="http://www.w3.org/1999/xlink">
    <!-- Generator: Sketch 52.4 (67378) - http://www.bohemiancoding.com/sketch -->
    <title>Group</title>
    <desc>Created with Sketch.</desc>
    <g id="Page-1" stroke="none" stroke-width="1" fill="none" fill-rule="evenodd" opacity="0.1">
        <g id="Footer" transform="translate(0.000000, -615.000000)" fill="#07689F">
            <g id="Group" transform="translate(-386.000000, 615.000000)">
                <path d="M2031.39095,220.017483 C1880.83926,123.741187 1620.56754,0.197089197 1106.35057,0.197089197 C868.822076,0.197089197 714.230427,-12.3732237 200.395297,163.264887 C-313.439833,338.902997 324.89704,383.592134 309.510115,406.848632 C294.123189,430.105131 2096.63755,458.544065 2074.35057,432.825357 C2036.98378,389.691864 2181.94265,316.293778 2031.39095,220.017483 Z" id="Path"></path>
                <path d="M2031.39095,235.621012 C1880.83926,146.081977 1620.56754,31.1832972 1106.35057,31.1832972 C868.822076,31.1832972 714.230427,19.4926347 200.395297,182.839872 C-313.439833,346.187109 324.89704,387.748972 309.510115,409.378018 C294.123189,431.007064 2096.63755,457.455886 2074.35057,433.536933 C2036.98378,393.421852 2181.94265,325.160047 2031.39095,235.621012 Z" id="Path"></path>
            </g>
        </g>
    </g>
</svg>