<?xml version="1.0" encoding="UTF-8"?>
<svg width="1440px" height="278px" viewBox="0 0 1440 278" version="1.1" xmlns="http://www.w3.org/2000/svg" xmlns:xlink="http://www.w3.org/1999/xlink">
    <!-- Generator: Sketch 52.4 (67378) - http://www.bohemiancoding.com/sketch -->
    <title>Group 2</title>
    <desc>Created with Sketch.</desc>
    <g id="Page-1" stroke="none" stroke-width="1" fill="none" fill-rule="evenodd" opacity="0.1">
        <g id="Homepage-3" transform="translate(0.000000, -2469.000000)" fill="#07689F">
            <g id="Group-2" transform="translate(-408.000000, 2469.000000)">
                <path d="M2046.00353,160.845362 C1970.94846,125.72574 2170.41882,90.4277988 1785.93587,45.2138994 C1401.45293,7.77034687e-14 1292.41788,1.22526989e-13 1120.95365,0 C971.348909,-1.06789577e-13 495.864067,30.6365304 292.645754,64.1529099 C235.221213,73.6238217 328.507322,70.2155232 250.637593,82.129313 C-360.166974,175.580225 339.492107,280.535003 324.105023,297.552077 C308.717939,314.569151 2111.25079,335.378278 2088.96358,316.559575 C2051.59641,284.998252 2196.55677,231.291945 2046.00353,160.845362 Z" id="Path"></path>
                <path d="M2046.00353,193.845362 C1970.94846,158.72574 2170.41882,123.427799 1785.93587,78.2138994 C1401.45293,33 1292.41788,33 1120.95365,33 C971.348909,33 495.864067,63.6365304 292.645754,97.1529099 C235.221213,106.623822 328.507322,103.215523 250.637593,115.129313 C-360.166974,208.580225 339.492107,313.535003 324.105023,330.552077 C308.717939,347.569151 2111.25079,368.378278 2088.96358,349.559575 C2051.59641,317.998252 2196.55677,264.291945 2046.00353,193.845362 Z" id="Path"></path>
            </g>
        </g>
    </g>
</svg>