<?xml version="1.0" encoding="UTF-8"?>
<svg width="783px" height="722px" viewBox="0 0 783 722" version="1.1" xmlns="http://www.w3.org/2000/svg" xmlns:xlink="http://www.w3.org/1999/xlink">
    <!-- Generator: Sketch 52.4 (67378) - http://www.bohemiancoding.com/sketch -->
    <title>Group</title>
    <desc>Created with Sketch.</desc>
    <defs>
        <linearGradient x1="50%" y1="100%" x2="50%" y2="-0.0105462982%" id="linearGradient-1">
            <stop stop-color="#808080" stop-opacity="0.25" offset="0%"></stop>
            <stop stop-color="#808080" stop-opacity="0.12" offset="54%"></stop>
            <stop stop-color="#808080" stop-opacity="0.1" offset="100%"></stop>
        </linearGradient>
        <linearGradient x1="50%" y1="100%" x2="50%" y2="0%" id="linearGradient-2">
            <stop stop-color="#808080" stop-opacity="0.25" offset="0%"></stop>
            <stop stop-color="#808080" stop-opacity="0.12" offset="54%"></stop>
            <stop stop-color="#808080" stop-opacity="0.1" offset="100%"></stop>
        </linearGradient>
    </defs>
    <g id="Page-1" stroke="none" stroke-width="1" fill="none" fill-rule="evenodd">
        <g id="Loan-Page" transform="translate(-657.000000, 0.000000)">
            <g id="Group" transform="translate(657.000000, -104.000000)">
                <g id="undraw_Golden_gate_bridge_laqs-(1)">
                    <path d="M762.634603,39.5408311 C694.889741,36.1553996 246.677624,-22.0091836 162.213261,9.14450103 C77.7488977,40.2981856 35.8960653,264.919078 27.4107142,337 C18.9253631,409.080922 16.9350523,464 27.4107142,529 C37.8863761,594 61.7068714,648.835499 143.669012,712 C211.144117,764 293.44586,785 333.338913,794 C367.955538,801.809621 788.668046,829.561347 788.668046,794 C788.668046,716 797.526446,727.396803 801.027496,627.615664 C803.091914,569.194183 817.192754,185.398044 784.295537,71.4019027 C778.591018,51.6344782 771.47331,39.9796865 762.634603,39.5408311 Z" id="Path" fill="#07689F" opacity="0.1"></path>
                    <path d="M742.489826,39.5408311 C674.744963,36.1553996 226.532846,-22.0091836 142.068483,9.14450103 C57.60412,40.2981856 15.7512876,264.919078 7.26593655,337 C-1.21941454,409.080922 -3.20972532,464 7.26593655,529 C17.7415984,594 39.5709088,651.835499 121.53305,715 C189.008154,767 290.173977,799 330.06703,808 C364.683655,815.809621 797.739307,843.561347 797.739307,808 C797.739307,730 777.381668,727.396803 780.882718,627.615664 C782.947137,569.194183 821.565262,181.996141 788.668046,68 C782.963526,48.2325755 751.328533,39.9796865 742.489826,39.5408311 Z" id="Path" fill="#07689F" opacity="0.1"></path>
                    <ellipse id="Oval" fill="url(#linearGradient-1)" cx="317.280248" cy="244" rx="65.4705274" ry="65"></ellipse>
                    <rect id="Rectangle" fill="url(#linearGradient-2)" x="731.255429" y="435" width="16.1158221" height="94"></rect>
                    <rect id="Rectangle" fill="url(#linearGradient-2)" x="735.284385" y="392" width="7.05067218" height="57"></rect>
                    <rect id="Rectangle" fill="url(#linearGradient-2)" x="174.252327" y="435" width="16.1158221" height="94"></rect>
                    <rect id="Rectangle" fill="url(#linearGradient-2)" x="178.281282" y="392" width="7.05067218" height="57"></rect>
                    <rect id="Rectangle" fill="url(#linearGradient-2)" x="97.7021717" y="594" width="724.204757" height="23"></rect>
                    <rect id="Rectangle" fill="#07689F" x="102.738366" y="598" width="716.146846" height="13"></rect>
                    <rect id="Rectangle" fill="#07689F" x="102.738366" y="612" width="716.146846" height="2"></rect>
                    <rect id="Rectangle" fill="#000000" opacity="0.2" x="105.760083" y="614" width="716.146846" height="2"></rect>
                    <rect id="Rectangle" fill="#07689F" x="172.237849" y="519" width="21.1520165" height="95"></rect>
                    <rect id="Rectangle" fill="#07689F" x="175.259566" y="438" width="12.0868666" height="90"></rect>
                    <rect id="Rectangle" fill="#07689F" x="179.288521" y="395" width="4.02895553" height="54"></rect>
                    <rect id="Rectangle" fill="#07689F" transform="translate(738.809721, 566.500000) rotate(-180.000000) translate(-738.809721, -566.500000) " x="728.233713" y="519" width="21.1520165" height="95"></rect>
                    <rect id="Rectangle" fill="#07689F" x="732.262668" y="438" width="12.0868666" height="90"></rect>
                    <rect id="Rectangle" fill="#07689F" x="736.291624" y="395" width="4.02895553" height="54"></rect>
                    <rect id="Rectangle" fill="#07689F" x="461.315408" y="553" width="4.02895553" height="54"></rect>
                    <path d="M825.935884,472.508929 C825.935884,472.508929 776.138757,469.294643 738.178653,403 C451.641087,785.5 181.430448,403 181.430448,403 C143.470343,469.294643 93.6732161,472.508929 93.6732161,472.508929" id="Path" stroke="#07689F" stroke-width="2"></path>
                    <path d="M112.307135,468 L112.307135,599" id="Path" stroke="#07689F"></path>
                    <path d="M137.488108,455 L137.488108,599" id="Path" stroke="#07689F"></path>
                    <path d="M431.601861,571 L431.601861,598" id="Path" stroke="#07689F"></path>
                    <path d="M491.028956,571 L491.028956,597" id="Path" stroke="#07689F"></path>
                    <path d="M373.182006,556 L373.182006,600" id="Path" stroke="#07689F"></path>
                    <path d="M315.76939,526 L315.76939,598" id="Path" stroke="#07689F"></path>
                    <path d="M257.349535,483 L257.349535,598" id="Path" stroke="#07689F"></path>
                    <path d="M549.448811,558 L549.448811,598" id="Path" stroke="#07689F"></path>
                    <path d="M609.883144,529 L609.883144,599" id="Path" stroke="#07689F"></path>
                    <path d="M667.29576,483 L667.29576,598" id="Path" stroke="#07689F"></path>
                    <path d="M227.132368,455 L227.132368,599" id="Path" stroke="#07689F"></path>
                    <path d="M694.49121,455 L694.49121,599" id="Path" stroke="#07689F"></path>
                    <path d="M783.128232,455 L783.128232,599" id="Path" stroke="#07689F"></path>
                    <path d="M286.559462,507 L286.559462,598" id="Path" stroke="#07689F"></path>
                    <path d="M344.979317,543 L344.979317,598" id="Path" stroke="#07689F"></path>
                    <path d="M397.355739,564 L397.355739,599" id="Path" stroke="#07689F"></path>
                    <path d="M523.2606,567 L523.2606,598" id="Path" stroke="#07689F"></path>
                    <path d="M579.665977,546 L579.665977,599" id="Path" stroke="#07689F"></path>
                    <path d="M637.078594,510 L637.078594,598" id="Path" stroke="#07689F"></path>
                    <rect id="Rectangle" fill="#000000" opacity="0.2" x="176.266805" y="518" width="11.0796277" height="2"></rect>
                    <rect id="Rectangle" fill="#000000" opacity="0.2" x="181.302999" y="436" width="4.02895553" height="2"></rect>
                    <rect id="Rectangle" fill="#000000" opacity="0.2" x="733.269907" y="518" width="11.0796277" height="2"></rect>
                    <rect id="Rectangle" fill="#000000" opacity="0.2" x="736.291624" y="436" width="4.02895553" height="2"></rect>
                    <path d="M276.990693,723.903389 C276.990693,723.903389 284.410296,717.370763 289.80488,723.903389 C295.199464,730.436016 303.971812,726.075186 306.677302,722.593417 C309.382793,719.111648 321.516508,723.903389 322.869253,727.385158 C324.221998,730.866928 329.616582,735.219139 333.322284,731.694279 C337.027986,728.169418 344.455787,720.378529 347.497415,725.161652" id="Path" fill="#2196F3"></path>
                    <path d="M276.990693,723.903389 C276.990693,723.903389 284.410296,717.370763 289.80488,723.903389 C295.199464,730.436016 303.971812,726.075186 306.677302,722.593417 C309.382793,719.111648 321.516508,723.903389 322.869253,727.385158 C324.221998,730.866928 329.616582,735.219139 333.322284,731.694279 C337.027986,728.169418 344.455787,720.378529 347.497415,725.161652" id="Path" fill="#2196F3"></path>
                    <path d="M217.563599,664.903389 C217.563599,664.903389 224.983201,658.370763 230.377786,664.903389 C235.77237,671.436016 244.544718,667.075186 247.250208,663.593417 C249.955699,660.111648 262.089413,664.903389 263.442159,668.385158 C264.794904,671.866928 270.189488,676.219139 273.89519,672.694279 C277.600892,669.169418 285.028693,661.378529 288.070321,666.161652" id="Path" fill="#2196F3"></path>
                    <path d="M217.563599,664.903389 C217.563599,664.903389 224.983201,658.370763 230.377786,664.903389 C235.77237,671.436016 244.544718,667.075186 247.250208,663.593417 C249.955699,660.111648 262.089413,664.903389 263.442159,668.385158 C264.794904,671.866928 270.189488,676.219139 273.89519,672.694279 C277.600892,669.169418 285.028693,661.378529 288.070321,666.161652" id="Path" fill="#000000" opacity="0.2"></path>
                    <path d="M276.990693,723.903389 C276.990693,723.903389 284.410296,717.370763 289.80488,723.903389 C295.199464,730.436016 303.971812,726.075186 306.677302,722.593417 C309.382793,719.111648 321.516508,723.903389 322.869253,727.385158 C324.221998,730.866928 329.616582,735.219139 333.322284,731.694279 C337.027986,728.169418 344.455787,720.378529 347.497415,725.161652" id="Path" fill="#000000" opacity="0.2"></path>
                    <path d="M276.990693,723.903389 C276.990693,723.903389 284.410296,717.370763 289.80488,723.903389 C295.199464,730.436016 303.971812,726.075186 306.677302,722.593417 C309.382793,719.111648 321.516508,723.903389 322.869253,727.385158 C324.221998,730.866928 329.616582,735.219139 333.322284,731.694279 C337.027986,728.169418 344.455787,720.378529 347.497415,725.161652" id="Path" fill="#000000" opacity="0.2"></path>
                    <path d="M217.563599,664.903389 C217.563599,664.903389 224.983201,658.370763 230.377786,664.903389 C235.77237,671.436016 244.544718,667.075186 247.250208,663.593417 C249.955699,660.111648 262.089413,664.903389 263.442159,668.385158 C264.794904,671.866928 270.189488,676.219139 273.89519,672.694279 C277.600892,669.169418 285.028693,661.378529 288.070321,666.161652" id="Path" fill="#000000" opacity="0.2"></path>
                    <path d="M651.683557,669.903389 C651.683557,669.903389 659.10316,663.370763 664.497744,669.903389 C669.892328,676.436016 678.664676,672.075186 681.370167,668.593417 C684.075657,665.111648 696.209372,669.903389 697.562117,673.385158 C698.914863,676.866928 704.309447,681.219139 708.015149,677.694279 C711.720851,674.169418 719.148652,666.378529 722.190279,671.161652" id="Path" fill="#000000" opacity="0.2"></path>
                    <path d="M651.683557,669.903389 C651.683557,669.903389 659.10316,663.370763 664.497744,669.903389 C669.892328,676.436016 678.664676,672.075186 681.370167,668.593417 C684.075657,665.111648 696.209372,669.903389 697.562117,673.385158 C698.914863,676.866928 704.309447,681.219139 708.015149,677.694279 C711.720851,674.169418 719.148652,666.378529 722.190279,671.161652" id="Path" fill="#000000" opacity="0.2"></path>
                    <path d="M651.683557,669.903389 C651.683557,669.903389 659.10316,663.370763 664.497744,669.903389 C669.892328,676.436016 678.664676,672.075186 681.370167,668.593417 C684.075657,665.111648 696.209372,669.903389 697.562117,673.385158 C698.914863,676.866928 704.309447,681.219139 708.015149,677.694279 C711.720851,674.169418 719.148652,666.378529 722.190279,671.161652" id="Path" fill="#2196F3"></path>
                    <path d="M651.683557,669.903389 C651.683557,669.903389 659.10316,663.370763 664.497744,669.903389 C669.892328,676.436016 678.664676,672.075186 681.370167,668.593417 C684.075657,665.111648 696.209372,669.903389 697.562117,673.385158 C698.914863,676.866928 704.309447,681.219139 708.015149,677.694279 C711.720851,674.169418 719.148652,666.378529 722.190279,671.161652" id="Path" fill="#000000" opacity="0.2"></path>
                    <path d="M651.683557,669.903389 C651.683557,669.903389 659.10316,663.370763 664.497744,669.903389 C669.892328,676.436016 678.664676,672.075186 681.370167,668.593417 C684.075657,665.111648 696.209372,669.903389 697.562117,673.385158 C698.914863,676.866928 704.309447,681.219139 708.015149,677.694279 C711.720851,674.169418 719.148652,666.378529 722.190279,671.161652" id="Path" fill="#000000" opacity="0.2"></path>
                    <path d="M768.523268,773.903389 C768.523268,773.903389 775.942871,767.370763 781.337455,773.903389 C786.732039,780.436016 795.504387,776.075186 798.209877,772.593417 C800.915368,769.111648 813.049083,773.903389 814.401828,777.385158 C815.754573,780.866928 821.149157,785.219139 824.854859,781.694279 C828.560561,778.169418 835.988362,770.378529 839.02999,775.161652" id="Path" fill="#2196F3"></path>
                    <path d="M768.523268,773.903389 C768.523268,773.903389 775.942871,767.370763 781.337455,773.903389 C786.732039,780.436016 795.504387,776.075186 798.209877,772.593417 C800.915368,769.111648 813.049083,773.903389 814.401828,777.385158 C815.754573,780.866928 821.149157,785.219139 824.854859,781.694279 C828.560561,778.169418 835.988362,770.378529 839.02999,775.161652" id="Path" fill="#000000" opacity="0.2"></path>
                    <path d="M441.170631,688.903389 C441.170631,688.903389 451.766784,682.370763 459.478205,688.903389 C467.189626,695.436016 479.719677,691.075186 483.579417,687.593417 C487.439156,684.111648 504.779781,688.903389 506.705622,692.385158 C508.631462,695.866928 516.375115,700.219139 521.653047,696.694279 C526.930978,693.169418 537.551305,685.378529 541.894519,690.161652" id="Path" fill="#07689F"></path>
                    <path d="M483.474664,773.903389 C483.474664,773.903389 494.070817,767.370763 501.782238,773.903389 C509.493659,780.436016 522.02371,776.075186 525.88345,772.593417 C529.743189,769.111648 547.083814,773.903389 549.009655,777.385158 C550.935495,780.866928 558.679148,785.219139 563.95708,781.694279 C569.235011,778.169418 579.855338,770.378529 584.198552,775.161652" id="Path" fill="#07689F"></path>
                    <path d="M611.394002,735.903389 C611.394002,735.903389 624.963932,729.370763 634.829263,735.903389 C644.694595,742.436016 660.736977,738.075186 665.673723,734.593417 C670.610468,731.111648 692.813583,735.903389 695.286036,739.385158 C697.758489,742.866928 707.62382,747.219139 714.404705,743.694279 C721.18559,740.169418 734.80448,732.378529 740.320579,737.161652" id="Path" fill="#2196F3"></path>
                    <path d="M611.394002,735.903389 C611.394002,735.903389 624.963932,729.370763 634.829263,735.903389 C644.694595,742.436016 660.736977,738.075186 665.673723,734.593417 C670.610468,731.111648 692.813583,735.903389 695.286036,739.385158 C697.758489,742.866928 707.62382,747.219139 714.404705,743.694279 C721.18559,740.169418 734.80448,732.378529 740.320579,737.161652" id="Path" fill="#000000" opacity="0.2"></path>
                    <path d="M611.394002,735.903389 C611.394002,735.903389 624.963932,729.370763 634.829263,735.903389 C644.694595,742.436016 660.736977,738.075186 665.673723,734.593417 C670.610468,731.111648 692.813583,735.903389 695.286036,739.385158 C697.758489,742.866928 707.62382,747.219139 714.404705,743.694279 C721.18559,740.169418 734.80448,732.378529 740.320579,737.161652" id="Path" fill="#000000" opacity="0.2"></path>
                    <path d="M454.243332,384.307692 L451.367246,384.307692 C451.399783,384.181843 451.416061,384.052683 451.415719,383.923077 C451.411291,382.862742 450.509619,382.004216 449.395995,382 L386.380613,382 C385.26515,382 384.360889,382.860991 384.360889,383.923077 C384.360889,384.985163 385.26515,385.846154 386.380613,385.846154 L389.264778,385.846154 C389.23496,385.972321 389.221395,386.101478 389.224384,386.230769 C389.224384,387.292855 390.128645,388.153846 391.244108,388.153846 L380.741544,388.153846 C379.626081,388.153846 378.72182,389.014837 378.72182,390.076923 C378.72182,391.139009 379.626081,392 380.741544,392 L443.756926,392 C444.872389,392 445.77665,391.139009 445.77665,390.076923 C445.77665,389.014837 444.872389,388.153846 443.756926,388.153846 L454.25949,388.153846 C455.374953,388.153846 456.279214,387.292855 456.279214,386.230769 C456.279214,385.168683 455.374953,384.307692 454.25949,384.307692 L454.243332,384.307692 Z" id="Path" fill="#07689F" opacity="0.1"></path>
                    <path d="M675.835887,265.307692 L672.9598,265.307692 C672.992337,265.181843 673.008615,265.052683 673.008273,264.923077 C673.003845,263.862742 672.102173,263.004216 670.98855,263 L607.973167,263 C606.857704,263 605.953443,263.860991 605.953443,264.923077 C605.953443,265.985163 606.857704,266.846154 607.973167,266.846154 L610.857333,266.846154 C610.827514,266.972321 610.813949,267.101478 610.816938,267.230769 C610.816938,268.292855 611.721199,269.153846 612.836662,269.153846 L602.334098,269.153846 C601.218636,269.153846 600.314374,270.014837 600.314374,271.076923 C600.314374,272.139009 601.218636,273 602.334098,273 L665.349481,273 C666.464943,273 667.369205,272.139009 667.369205,271.076923 C667.369205,270.014837 666.464943,269.153846 665.349481,269.153846 L675.852045,269.153846 C676.967507,269.153846 677.871768,268.292855 677.871768,267.230769 C677.871768,266.168683 676.967507,265.307692 675.852045,265.307692 L675.835887,265.307692 Z" id="Path" fill="#07689F" opacity="0.1"></path>
                    <path d="M181.281595,299.307692 L178.405508,299.307692 C178.438046,299.181843 178.454324,299.052683 178.453982,298.923077 C178.449554,297.862742 177.547881,297.004216 176.434258,297 L113.418875,297 C112.303413,297 111.399152,297.860991 111.399152,298.923077 C111.399152,299.985163 112.303413,300.846154 113.418875,300.846154 L116.303041,300.846154 C116.273222,300.972321 116.259658,301.101478 116.262647,301.230769 C116.262647,302.292855 117.166908,303.153846 118.28237,303.153846 L107.779807,303.153846 C106.664344,303.153846 105.760083,304.014837 105.760083,305.076923 C105.760083,306.139009 106.664344,307 107.779807,307 L170.795189,307 C171.910652,307 172.814913,306.139009 172.814913,305.076923 C172.814913,304.014837 171.910652,303.153846 170.795189,303.153846 L181.297753,303.153846 C182.413216,303.153846 183.317477,302.292855 183.317477,301.230769 C183.317477,300.168683 182.413216,299.307692 181.297753,299.307692 L181.281595,299.307692 Z" id="Path" fill="#07689F" opacity="0.1"></path>
                    <path d="M575.111998,155.307692 L572.235912,155.307692 C572.268449,155.181843 572.284727,155.052683 572.284385,154.923077 C572.279957,153.862742 571.378285,153.004216 570.264661,153 L507.249279,153 C506.133816,153 505.229555,153.860991 505.229555,154.923077 C505.229555,155.985163 506.133816,156.846154 507.249279,156.846154 L510.133444,156.846154 C510.103626,156.972321 510.090061,157.101478 510.09305,157.230769 C510.09305,158.292855 510.997311,159.153846 512.112774,159.153846 L501.61021,159.153846 C500.494747,159.153846 499.590486,160.014837 499.590486,161.076923 C499.590486,162.139009 500.494747,163 501.61021,163 L564.625592,163 C565.741055,163 566.645316,162.139009 566.645316,161.076923 C566.645316,160.014837 565.741055,159.153846 564.625592,159.153846 L575.128156,159.153846 C576.243619,159.153846 577.14788,158.292855 577.14788,157.230769 C577.14788,156.168683 576.243619,155.307692 575.128156,155.307692 L575.111998,155.307692 Z" id="Path" fill="#07689F" opacity="0.1"></path>
                    <path d="M778.574253,351.307692 L775.698166,351.307692 C775.730703,351.181843 775.746982,351.052683 775.74664,350.923077 C775.742212,349.862742 774.840539,349.004216 773.726916,349 L710.711533,349 C709.59607,349 708.691809,349.860991 708.691809,350.923077 C708.691809,351.985163 709.59607,352.846154 710.711533,352.846154 L713.595699,352.846154 C713.56588,352.972321 713.552315,353.101478 713.555304,353.230769 C713.555304,354.292855 714.459565,355.153846 715.575028,355.153846 L705.072464,355.153846 C703.957002,355.153846 703.05274,356.014837 703.05274,357.076923 C703.05274,358.139009 703.957002,359 705.072464,359 L768.087847,359 C769.20331,359 770.107571,358.139009 770.107571,357.076923 C770.107571,356.014837 769.20331,355.153846 768.087847,355.153846 L778.590411,355.153846 C779.705873,355.153846 780.610134,354.292855 780.610134,353.230769 C780.610134,352.168683 779.705873,351.307692 778.590411,351.307692 L778.574253,351.307692 Z" id="Path" fill="#07689F" opacity="0.1"></path>
                    <path d="M631.517376,451.307692 L628.641289,451.307692 C628.673826,451.181843 628.690105,451.052683 628.689763,450.923077 C628.685335,449.862742 627.783662,449.004216 626.670039,449 L563.654656,449 C562.539193,449 561.634932,449.860991 561.634932,450.923077 C561.634932,451.985163 562.539193,452.846154 563.654656,452.846154 L566.538822,452.846154 C566.509003,452.972321 566.495439,453.101478 566.498427,453.230769 C566.498427,454.292855 567.402688,455.153846 568.518151,455.153846 L558.015587,455.153846 C556.900125,455.153846 555.995863,456.014837 555.995863,457.076923 C555.995863,458.139009 556.900125,459 558.015587,459 L621.03097,459 C622.146433,459 623.050694,458.139009 623.050694,457.076923 C623.050694,456.014837 622.146433,455.153846 621.03097,455.153846 L631.533534,455.153846 C632.648996,455.153846 633.553257,454.292855 633.553257,453.230769 C633.553257,452.168683 632.648996,451.307692 631.533534,451.307692 L631.517376,451.307692 Z" id="Path" fill="#07689F" opacity="0.1"></path>
                </g>
                <circle id="Oval" fill="#FACF0F" cx="317.5" cy="244.5" r="57.5"></circle>
            </g>
        </g>
    </g>
</svg>