<?xml version="1.0" encoding="UTF-8"?>
<svg width="784px" height="2083px" viewBox="0 0 784 2083" version="1.1" xmlns="http://www.w3.org/2000/svg" xmlns:xlink="http://www.w3.org/1999/xlink">
    <!-- Generator: Sketch 52.4 (67378) - http://www.bohemiancoding.com/sketch -->
    <title>Group</title>
    <desc>Created with Sketch.</desc>
    <defs>
        <linearGradient x1="50%" y1="100%" x2="50%" y2="-0.0105462982%" id="linearGradient-1">
            <stop stop-color="#808080" stop-opacity="0.25" offset="0%"></stop>
            <stop stop-color="#808080" stop-opacity="0.12" offset="54%"></stop>
            <stop stop-color="#808080" stop-opacity="0.1" offset="100%"></stop>
        </linearGradient>
        <linearGradient x1="50%" y1="100%" x2="50%" y2="0%" id="linearGradient-2">
            <stop stop-color="#808080" stop-opacity="0.25" offset="0%"></stop>
            <stop stop-color="#808080" stop-opacity="0.12" offset="54%"></stop>
            <stop stop-color="#808080" stop-opacity="0.1" offset="100%"></stop>
        </linearGradient>
    </defs>
    <g id="Page-1" stroke="none" stroke-width="1" fill="none" fill-rule="evenodd">
        <g id="Homepage-3" transform="translate(-656.000000, 0.000000)">
            <g id="Group" transform="translate(656.000000, -104.000000)">
                <g id="undraw_Golden_gate_bridge_laqs-(1)">
                    <path d="M778.153657,26.6287741 C710.895666,23.2435271 251.186572,-4.52321242 167.329243,26.6287741 C83.4719128,57.7807607 30.5330556,248.361525 22.1086875,320.438519 C13.6843195,392.515512 32.1614421,468.832329 48.2137173,520.558171 C64.2659925,572.284013 82.949803,585.851447 107.295018,686.759238 C120.073059,739.72258 106.468336,785.477153 98.7775784,844.907705 C92.7316346,891.627909 90.3405338,946.799897 107.295018,1020.57012 C133.006091,1132.44091 234.193222,1345.30739 330.481928,1451.29927 C438.316028,1570 569.725013,1734.50843 688.625267,1931 C779.872816,2081.7934 794.785948,2211.39637 816.270625,2203.24641 C879.491544,2179.26429 799.865487,1657.19802 790.358467,1635.88442 C757.233158,1561.59903 812.794736,714.447254 816.270625,614.671553 C818.675613,546.123271 837.534176,29.598289 778.153657,26.6287741 Z" id="Path" fill="#07689F" opacity="0.1"></path>
                    <path d="M758.153657,39.5408311 C690.895666,36.1553996 245.904787,-22.0091836 162.047457,9.14450103 C78.1901274,40.2981856 10.5330556,261.285669 2.10868754,333.366591 C-6.31568054,405.447513 12.1614421,481.76849 28.2137173,533.497151 C44.2659925,585.225813 62.949803,598.793987 87.2950179,699.707278 C100.073059,752.673507 86.4683361,798.430574 78.7775784,857.864365 C72.7316346,904.587116 70.3405338,959.762111 87.2950179,1033.53635 C113.006091,1145.41324 216.990607,1357.80956 322.249893,1481 C459.040408,1641.09309 484.628471,1662.01791 605.58584,1848 C767.105306,2096.34972 937.430024,2555.19037 924.692187,2526.63211 C891.566878,2452.34268 792.794736,727.396803 796.270625,627.615664 C798.320206,569.194183 812.319706,185.398044 779.658916,71.4019027 C773.995394,51.6344782 766.928841,39.9796865 758.153657,39.5408311 Z" id="Path" fill="#07689F" opacity="0.1"></path>
                    <circle id="Oval" fill="url(#linearGradient-1)" cx="316" cy="244" r="65"></circle>
                    <rect id="Rectangle" fill="url(#linearGradient-2)" x="727" y="435" width="16" height="94"></rect>
                    <rect id="Rectangle" fill="url(#linearGradient-2)" x="731" y="392" width="7" height="57"></rect>
                    <rect id="Rectangle" fill="url(#linearGradient-2)" x="174" y="435" width="16" height="94"></rect>
                    <rect id="Rectangle" fill="url(#linearGradient-2)" x="178" y="392" width="7" height="57"></rect>
                    <rect id="Rectangle" fill="url(#linearGradient-2)" x="98" y="594" width="719" height="23"></rect>
                    <rect id="Rectangle" fill="#07689F" x="103" y="598" width="711" height="13"></rect>
                    <rect id="Rectangle" fill="#07689F" x="103" y="612" width="711" height="2"></rect>
                    <rect id="Rectangle" fill="#000000" opacity="0.2" x="106" y="614" width="711" height="2"></rect>
                    <rect id="Rectangle" fill="#07689F" x="172" y="519" width="21" height="95"></rect>
                    <rect id="Rectangle" fill="#07689F" x="175" y="438" width="12" height="90"></rect>
                    <rect id="Rectangle" fill="#07689F" x="179" y="395" width="4" height="54"></rect>
                    <rect id="Rectangle" fill="#07689F" transform="translate(734.500000, 566.500000) rotate(-180.000000) translate(-734.500000, -566.500000) " x="724" y="519" width="21" height="95"></rect>
                    <rect id="Rectangle" fill="#07689F" x="728" y="438" width="12" height="90"></rect>
                    <rect id="Rectangle" fill="#07689F" x="732" y="395" width="4" height="54"></rect>
                    <rect id="Rectangle" fill="#07689F" x="459" y="553" width="4" height="54"></rect>
                    <path d="M821,472.508929 C821,472.508929 771.560758,469.294643 733.873467,403 C449.395206,785.5 181.126533,403 181.126533,403 C143.439242,469.294643 94,472.508929 94,472.508929" id="Path" stroke="#07689F" stroke-width="2"></path>
                    <path d="M112.5,468 L112.5,599" id="Path" stroke="#07689F"></path>
                    <path d="M137.5,455 L137.5,599" id="Path" stroke="#07689F"></path>
                    <path d="M429.5,571 L429.5,598" id="Path" stroke="#07689F"></path>
                    <path d="M488.5,571 L488.5,597" id="Path" stroke="#07689F"></path>
                    <path d="M371.5,556 L371.5,600" id="Path" stroke="#07689F"></path>
                    <path d="M314.5,526 L314.5,598" id="Path" stroke="#07689F"></path>
                    <path d="M256.5,483 L256.5,598" id="Path" stroke="#07689F"></path>
                    <path d="M546.5,558 L546.5,598" id="Path" stroke="#07689F"></path>
                    <path d="M606.5,529 L606.5,599" id="Path" stroke="#07689F"></path>
                    <path d="M663.5,483 L663.5,598" id="Path" stroke="#07689F"></path>
                    <path d="M226.5,455 L226.5,599" id="Path" stroke="#07689F"></path>
                    <path d="M690.5,455 L690.5,599" id="Path" stroke="#07689F"></path>
                    <path d="M778.5,455 L778.5,599" id="Path" stroke="#07689F"></path>
                    <path d="M285.5,507 L285.5,598" id="Path" stroke="#07689F"></path>
                    <path d="M343.5,543 L343.5,598" id="Path" stroke="#07689F"></path>
                    <path d="M395.5,564 L395.5,599" id="Path" stroke="#07689F"></path>
                    <path d="M520.5,567 L520.5,598" id="Path" stroke="#07689F"></path>
                    <path d="M576.5,546 L576.5,599" id="Path" stroke="#07689F"></path>
                    <path d="M633.5,510 L633.5,598" id="Path" stroke="#07689F"></path>
                    <rect id="Rectangle" fill="#000000" opacity="0.2" x="176" y="518" width="11" height="2"></rect>
                    <rect id="Rectangle" fill="#000000" opacity="0.2" x="181" y="436" width="4" height="2"></rect>
                    <rect id="Rectangle" fill="#000000" opacity="0.2" x="729" y="518" width="11" height="2"></rect>
                    <rect id="Rectangle" fill="#000000" opacity="0.2" x="732" y="436" width="4" height="2"></rect>
                    <path d="M276,723.903389 C276,723.903389 283.366279,717.370763 288.722093,723.903389 C294.077907,730.436016 302.787209,726.075186 305.473256,722.593417 C308.159302,719.111648 320.205814,723.903389 321.548837,727.385158 C322.89186,730.866928 328.247674,735.219139 331.926744,731.694279 C335.605814,728.169418 342.980233,720.378529 346,725.161652" id="Path" fill="#2196F3"></path>
                    <path d="M276,723.903389 C276,723.903389 283.366279,717.370763 288.722093,723.903389 C294.077907,730.436016 302.787209,726.075186 305.473256,722.593417 C308.159302,719.111648 320.205814,723.903389 321.548837,727.385158 C322.89186,730.866928 328.247674,735.219139 331.926744,731.694279 C335.605814,728.169418 342.980233,720.378529 346,725.161652" id="Path" fill="#2196F3"></path>
                    <path d="M217,664.903389 C217,664.903389 224.366279,658.370763 229.722093,664.903389 C235.077907,671.436016 243.787209,667.075186 246.473256,663.593417 C249.159302,660.111648 261.205814,664.903389 262.548837,668.385158 C263.89186,671.866928 269.247674,676.219139 272.926744,672.694279 C276.605814,669.169418 283.980233,661.378529 287,666.161652" id="Path" fill="#2196F3"></path>
                    <path d="M217,664.903389 C217,664.903389 224.366279,658.370763 229.722093,664.903389 C235.077907,671.436016 243.787209,667.075186 246.473256,663.593417 C249.159302,660.111648 261.205814,664.903389 262.548837,668.385158 C263.89186,671.866928 269.247674,676.219139 272.926744,672.694279 C276.605814,669.169418 283.980233,661.378529 287,666.161652" id="Path" fill="#000000" opacity="0.2"></path>
                    <path d="M276,723.903389 C276,723.903389 283.366279,717.370763 288.722093,723.903389 C294.077907,730.436016 302.787209,726.075186 305.473256,722.593417 C308.159302,719.111648 320.205814,723.903389 321.548837,727.385158 C322.89186,730.866928 328.247674,735.219139 331.926744,731.694279 C335.605814,728.169418 342.980233,720.378529 346,725.161652" id="Path" fill="#000000" opacity="0.2"></path>
                    <path d="M276,723.903389 C276,723.903389 283.366279,717.370763 288.722093,723.903389 C294.077907,730.436016 302.787209,726.075186 305.473256,722.593417 C308.159302,719.111648 320.205814,723.903389 321.548837,727.385158 C322.89186,730.866928 328.247674,735.219139 331.926744,731.694279 C335.605814,728.169418 342.980233,720.378529 346,725.161652" id="Path" fill="#000000" opacity="0.2"></path>
                    <path d="M217,664.903389 C217,664.903389 224.366279,658.370763 229.722093,664.903389 C235.077907,671.436016 243.787209,667.075186 246.473256,663.593417 C249.159302,660.111648 261.205814,664.903389 262.548837,668.385158 C263.89186,671.866928 269.247674,676.219139 272.926744,672.694279 C276.605814,669.169418 283.980233,661.378529 287,666.161652" id="Path" fill="#000000" opacity="0.2"></path>
                    <path d="M648,669.903389 C648,669.903389 655.366279,663.370763 660.722093,669.903389 C666.077907,676.436016 674.787209,672.075186 677.473256,668.593417 C680.159302,665.111648 692.205814,669.903389 693.548837,673.385158 C694.89186,676.866928 700.247674,681.219139 703.926744,677.694279 C707.605814,674.169418 714.980233,666.378529 718,671.161652" id="Path" fill="#000000" opacity="0.2"></path>
                    <path d="M648,669.903389 C648,669.903389 655.366279,663.370763 660.722093,669.903389 C666.077907,676.436016 674.787209,672.075186 677.473256,668.593417 C680.159302,665.111648 692.205814,669.903389 693.548837,673.385158 C694.89186,676.866928 700.247674,681.219139 703.926744,677.694279 C707.605814,674.169418 714.980233,666.378529 718,671.161652" id="Path" fill="#000000" opacity="0.2"></path>
                    <path d="M648,669.903389 C648,669.903389 655.366279,663.370763 660.722093,669.903389 C666.077907,676.436016 674.787209,672.075186 677.473256,668.593417 C680.159302,665.111648 692.205814,669.903389 693.548837,673.385158 C694.89186,676.866928 700.247674,681.219139 703.926744,677.694279 C707.605814,674.169418 714.980233,666.378529 718,671.161652" id="Path" fill="#2196F3"></path>
                    <path d="M648,669.903389 C648,669.903389 655.366279,663.370763 660.722093,669.903389 C666.077907,676.436016 674.787209,672.075186 677.473256,668.593417 C680.159302,665.111648 692.205814,669.903389 693.548837,673.385158 C694.89186,676.866928 700.247674,681.219139 703.926744,677.694279 C707.605814,674.169418 714.980233,666.378529 718,671.161652" id="Path" fill="#000000" opacity="0.2"></path>
                    <path d="M648,669.903389 C648,669.903389 655.366279,663.370763 660.722093,669.903389 C666.077907,676.436016 674.787209,672.075186 677.473256,668.593417 C680.159302,665.111648 692.205814,669.903389 693.548837,673.385158 C694.89186,676.866928 700.247674,681.219139 703.926744,677.694279 C707.605814,674.169418 714.980233,666.378529 718,671.161652" id="Path" fill="#000000" opacity="0.2"></path>
                    <path d="M764,773.903389 C764,773.903389 771.366279,767.370763 776.722093,773.903389 C782.077907,780.436016 790.787209,776.075186 793.473256,772.593417 C796.159302,769.111648 808.205814,773.903389 809.548837,777.385158 C810.89186,780.866928 816.247674,785.219139 819.926744,781.694279 C823.605814,778.169418 830.980233,770.378529 834,775.161652" id="Path" fill="#2196F3"></path>
                    <path d="M764,773.903389 C764,773.903389 771.366279,767.370763 776.722093,773.903389 C782.077907,780.436016 790.787209,776.075186 793.473256,772.593417 C796.159302,769.111648 808.205814,773.903389 809.548837,777.385158 C810.89186,780.866928 816.247674,785.219139 819.926744,781.694279 C823.605814,778.169418 830.980233,770.378529 834,775.161652" id="Path" fill="#000000" opacity="0.2"></path>
                    <path d="M183,780.903389 C183,780.903389 208.260606,774.370763 226.636364,780.903389 C245.012121,787.436016 274.862626,783.075186 284.050505,779.593417 C293.238384,776.111648 334.571717,780.903389 339.169697,784.385158 C343.767677,787.866928 362.135354,792.219139 374.765657,788.694279 C387.39596,785.169418 412.664646,777.378529 423,782.161652" id="Path" fill="#07689F"></path>
                    <path d="M428,1220.90339 C428,1220.90339 453.260606,1214.37076 471.636364,1220.90339 C490.012121,1227.43602 519.862626,1223.07519 529.050505,1219.59342 C538.238384,1216.11165 579.571717,1220.90339 584.169697,1224.38516 C588.767677,1227.86693 607.135354,1232.21914 619.765657,1228.69428 C632.39596,1225.16942 657.664646,1217.37853 668,1222.16165" id="Path" fill="#07689F"></path>
                    <path d="M428,1220.90339 C428,1220.90339 453.260606,1214.37076 471.636364,1220.90339 C490.012121,1227.43602 519.862626,1223.07519 529.050505,1219.59342 C538.238384,1216.11165 579.571717,1220.90339 584.169697,1224.38516 C588.767677,1227.86693 607.135354,1232.21914 619.765657,1228.69428 C632.39596,1225.16942 657.664646,1217.37853 668,1222.16165" id="Path" fill="#07689F"></path>
                    <path d="M428,1220.90339 C428,1220.90339 453.260606,1214.37076 471.636364,1220.90339 C490.012121,1227.43602 519.862626,1223.07519 529.050505,1219.59342 C538.238384,1216.11165 579.571717,1220.90339 584.169697,1224.38516 C588.767677,1227.86693 607.135354,1232.21914 619.765657,1228.69428 C632.39596,1225.16942 657.664646,1217.37853 668,1222.16165" id="Path" fill="#07689F"></path>
                    <path d="M396,1454.90339 C396,1454.90339 421.260606,1448.37076 439.636364,1454.90339 C458.012121,1461.43602 487.862626,1457.07519 497.050505,1453.59342 C506.238384,1450.11165 547.571717,1454.90339 552.169697,1458.38516 C556.767677,1461.86693 575.135354,1466.21914 587.765657,1462.69428 C600.39596,1459.16942 625.664646,1451.37853 636,1456.16165" id="Path" fill="#07689F"></path>
                    <path d="M595,1721.90339 C595,1721.90339 620.260606,1715.37076 638.636364,1721.90339 C657.012121,1728.43602 686.862626,1724.07519 696.050505,1720.59342 C705.238384,1717.11165 746.571717,1721.90339 751.169697,1725.38516 C755.767677,1728.86693 774.135354,1733.21914 786.765657,1729.69428 C799.39596,1726.16942 824.664646,1718.37853 835,1723.16165" id="Path" fill="#07689F"></path>
                    <path d="M525,1544.90339 C525,1544.90339 550.260606,1538.37076 568.636364,1544.90339 C587.012121,1551.43602 616.862626,1547.07519 626.050505,1543.59342 C635.238384,1540.11165 676.571717,1544.90339 681.169697,1548.38516 C685.767677,1551.86693 704.135354,1556.21914 716.765657,1552.69428 C729.39596,1549.16942 754.664646,1541.37853 765,1546.16165" id="Path" fill="#07689F"></path>
                    <path d="M396,1003.90339 C396,1003.90339 421.260606,997.370763 439.636364,1003.90339 C458.012121,1010.43602 487.862626,1006.07519 497.050505,1002.59342 C506.238384,999.111648 547.571717,1003.90339 552.169697,1007.38516 C556.767677,1010.86693 575.135354,1015.21914 587.765657,1011.69428 C600.39596,1008.16942 625.664646,1000.37853 636,1005.16165" id="Path" fill="#07689F"></path>
                    <path d="M213,1067.90339 C213,1067.90339 238.260606,1061.37076 256.636364,1067.90339 C275.012121,1074.43602 304.862626,1070.07519 314.050505,1066.59342 C323.238384,1063.11165 364.571717,1067.90339 369.169697,1071.38516 C373.767677,1074.86693 392.135354,1079.21914 404.765657,1075.69428 C417.39596,1072.16942 442.664646,1064.37853 453,1069.16165" id="Path" fill="#07689F"></path>
                    <path d="M137,929.889577 C137,929.889577 162.260606,923.388029 180.636364,929.889577 C199.012121,936.391124 228.862626,932.051421 238.050505,928.584463 C247.238384,925.117505 288.571717,929.889577 293.169697,933.388562 C297.767677,936.887547 316.135354,941.187216 328.765657,937.720258 C341.39596,934.2533 366.664646,926.454646 377,931.218711" id="Path" fill="#07689F"></path>
                    <path d="M380,851.903389 C380,851.903389 390.52,845.370763 398.176,851.903389 C405.832,858.436016 418.272,854.075186 422.104,850.593417 C425.936,847.111648 443.152,851.903389 445.064,855.385158 C446.976,858.866928 454.664,863.219139 459.904,859.694279 C465.144,856.169418 475.688,848.378529 480,853.161652" id="Path" fill="#07689F"></path>
                    <path d="M328,1150.90339 C328,1150.90339 338.52,1144.37076 346.176,1150.90339 C353.832,1157.43602 366.272,1153.07519 370.104,1149.59342 C373.936,1146.11165 391.152,1150.90339 393.064,1154.38516 C394.976,1157.86693 402.664,1162.21914 407.904,1158.69428 C413.144,1155.16942 423.688,1147.37853 428,1152.16165" id="Path" fill="#07689F"></path>
                    <path d="M525,1126.90339 C525,1126.90339 535.52,1120.37076 543.176,1126.90339 C550.832,1133.43602 563.272,1129.07519 567.104,1125.59342 C570.936,1122.11165 588.152,1126.90339 590.064,1130.38516 C591.976,1133.86693 599.664,1138.21914 604.904,1134.69428 C610.144,1131.16942 620.688,1123.37853 625,1128.16165" id="Path" fill="#07689F"></path>
                    <path d="M636,1074.90339 C636,1074.90339 661.260606,1068.37076 679.636364,1074.90339 C698.012121,1081.43602 727.862626,1077.07519 737.050505,1073.59342 C746.238384,1070.11165 787.571717,1074.90339 792.169697,1078.38516 C796.767677,1081.86693 815.135354,1086.21914 827.765657,1082.69428 C840.39596,1079.16942 865.664646,1071.37853 876,1076.16165" id="Path" fill="#07689F"></path>
                    <path d="M517,1298.90339 C517,1298.90339 527.52,1292.37076 535.176,1298.90339 C542.832,1305.43602 555.272,1301.07519 559.104,1297.59342 C562.936,1294.11165 580.152,1298.90339 582.064,1302.38516 C583.976,1305.86693 591.664,1310.21914 596.904,1306.69428 C602.144,1303.16942 612.688,1295.37853 617,1300.16165" id="Path" fill="#07689F"></path>
                    <path d="M598,1372.90339 C598,1372.90339 608.52,1366.37076 616.176,1372.90339 C623.832,1379.43602 636.272,1375.07519 640.104,1371.59342 C643.936,1368.11165 661.152,1372.90339 663.064,1376.38516 C664.976,1379.86693 672.664,1384.21914 677.904,1380.69428 C683.144,1377.16942 693.688,1369.37853 698,1374.16165" id="Path" fill="#07689F"></path>
                    <path d="M598,1372.90339 C598,1372.90339 608.52,1366.37076 616.176,1372.90339 C623.832,1379.43602 636.272,1375.07519 640.104,1371.59342 C643.936,1368.11165 661.152,1372.90339 663.064,1376.38516 C664.976,1379.86693 672.664,1384.21914 677.904,1380.69428 C683.144,1377.16942 693.688,1369.37853 698,1374.16165" id="Path" fill="#07689F"></path>
                    <path d="M338,1302.90339 C338,1302.90339 348.52,1296.37076 356.176,1302.90339 C363.832,1309.43602 376.272,1305.07519 380.104,1301.59342 C383.936,1298.11165 401.152,1302.90339 403.064,1306.38516 C404.976,1309.86693 412.664,1314.21914 417.904,1310.69428 C423.144,1307.16942 433.688,1299.37853 438,1304.16165" id="Path" fill="#07689F"></path>
                    <path d="M545,1634.90339 C545,1634.90339 555.52,1628.37076 563.176,1634.90339 C570.832,1641.43602 583.272,1637.07519 587.104,1633.59342 C590.936,1630.11165 608.152,1634.90339 610.064,1638.38516 C611.976,1641.86693 619.664,1646.21914 624.904,1642.69428 C630.144,1639.16942 640.688,1631.37853 645,1636.16165" id="Path" fill="#07689F"></path>
                    <path d="M728,1657.90339 C728,1657.90339 738.52,1651.37076 746.176,1657.90339 C753.832,1664.43602 766.272,1660.07519 770.104,1656.59342 C773.936,1653.11165 791.152,1657.90339 793.064,1661.38516 C794.976,1664.86693 802.664,1669.21914 807.904,1665.69428 C813.144,1662.16942 823.688,1654.37853 828,1659.16165" id="Path" fill="#07689F"></path>
                    <path d="M714,1907.90339 C714,1907.90339 724.52,1901.37076 732.176,1907.90339 C739.832,1914.43602 752.272,1910.07519 756.104,1906.59342 C759.936,1903.11165 777.152,1907.90339 779.064,1911.38516 C780.976,1914.86693 788.664,1919.21914 793.904,1915.69428 C799.144,1912.16942 809.688,1904.37853 814,1909.16165" id="Path" fill="#07689F"></path>
                    <path d="M664,1809.90339 C664,1809.90339 674.52,1803.37076 682.176,1809.90339 C689.832,1816.43602 702.272,1812.07519 706.104,1808.59342 C709.936,1805.11165 727.152,1809.90339 729.064,1813.38516 C730.976,1816.86693 738.664,1821.21914 743.904,1817.69428 C749.144,1814.16942 759.688,1806.37853 764,1811.16165" id="Path" fill="#07689F"></path>
                    <path d="M439,688.903389 C439,688.903389 449.52,682.370763 457.176,688.903389 C464.832,695.436016 477.272,691.075186 481.104,687.593417 C484.936,684.111648 502.152,688.903389 504.064,692.385158 C505.976,695.866928 513.664,700.219139 518.904,696.694279 C524.144,693.169418 534.688,685.378529 539,690.161652" id="Path" fill="#07689F"></path>
                    <path d="M481,773.903389 C481,773.903389 491.52,767.370763 499.176,773.903389 C506.832,780.436016 519.272,776.075186 523.104,772.593417 C526.936,769.111648 544.152,773.903389 546.064,777.385158 C547.976,780.866928 555.664,785.219139 560.904,781.694279 C566.144,778.169418 576.688,770.378529 581,775.161652" id="Path" fill="#07689F"></path>
                    <path d="M523,809.903389 C523,809.903389 533.52,803.370763 541.176,809.903389 C548.832,816.436016 561.272,812.075186 565.104,808.593417 C568.936,805.111648 586.152,809.903389 588.064,813.385158 C589.976,816.866928 597.664,821.219139 602.904,817.694279 C608.144,814.169418 618.688,806.378529 623,811.161652" id="Path" fill="#07689F"></path>
                    <path d="M649,854.903389 C649,854.903389 659.52,848.370763 667.176,854.903389 C674.832,861.436016 687.272,857.075186 691.104,853.593417 C694.936,850.111648 712.152,854.903389 714.064,858.385158 C715.976,861.866928 723.664,866.219139 728.904,862.694279 C734.144,859.169418 744.688,851.378529 749,856.161652" id="Path" fill="#07689F"></path>
                    <path d="M517,895.903389 C517,895.903389 527.52,889.370763 535.176,895.903389 C542.832,902.436016 555.272,898.075186 559.104,894.593417 C562.936,891.111648 580.152,895.903389 582.064,899.385158 C583.976,902.866928 591.664,907.219139 596.904,903.694279 C602.144,900.169418 612.688,892.378529 617,897.161652" id="Path" fill="#07689F"></path>
                    <path d="M608,735.903389 C608,735.903389 621.472405,729.370763 631.266835,735.903389 C641.061266,742.436016 656.988354,738.075186 661.88962,734.593417 C666.790886,731.111648 688.83443,735.903389 691.289114,739.385158 C693.743797,742.866928 703.538228,747.219139 710.27038,743.694279 C717.002532,740.169418 730.523544,732.378529 736,737.161652" id="Path" fill="#2196F3"></path>
                    <path d="M608,735.903389 C608,735.903389 621.472405,729.370763 631.266835,735.903389 C641.061266,742.436016 656.988354,738.075186 661.88962,734.593417 C666.790886,731.111648 688.83443,735.903389 691.289114,739.385158 C693.743797,742.866928 703.538228,747.219139 710.27038,743.694279 C717.002532,740.169418 730.523544,732.378529 736,737.161652" id="Path" fill="#000000" opacity="0.2"></path>
                    <path d="M608,735.903389 C608,735.903389 621.472405,729.370763 631.266835,735.903389 C641.061266,742.436016 656.988354,738.075186 661.88962,734.593417 C666.790886,731.111648 688.83443,735.903389 691.289114,739.385158 C693.743797,742.866928 703.538228,747.219139 710.27038,743.694279 C717.002532,740.169418 730.523544,732.378529 736,737.161652" id="Path" fill="#000000" opacity="0.2"></path>
                    <path d="M451.97875,384.307692 L449.123333,384.307692 C449.155637,384.181843 449.171798,384.052683 449.171458,383.923077 C449.167062,382.862742 448.27187,382.004216 447.16625,382 L384.60375,382 C383.496304,382 382.598542,382.860991 382.598542,383.923077 C382.598542,384.985163 383.496304,385.846154 384.60375,385.846154 L387.467187,385.846154 C387.437583,385.972321 387.424116,386.101478 387.427083,386.230769 C387.427083,387.292855 388.324846,388.153846 389.432292,388.153846 L379.005208,388.153846 C377.897762,388.153846 377,389.014837 377,390.076923 C377,391.139009 377.897762,392 379.005208,392 L441.567708,392 C442.675154,392 443.572917,391.139009 443.572917,390.076923 C443.572917,389.014837 442.675154,388.153846 441.567708,388.153846 L451.994792,388.153846 C453.102238,388.153846 454,387.292855 454,386.230769 C454,385.168683 453.102238,384.307692 451.994792,384.307692 L451.97875,384.307692 Z" id="Path" fill="#07689F" opacity="0.1"></path>
                    <path d="M671.97875,265.307692 L669.123333,265.307692 C669.155637,265.181843 669.171798,265.052683 669.171458,264.923077 C669.167062,263.862742 668.27187,263.004216 667.16625,263 L604.60375,263 C603.496304,263 602.598542,263.860991 602.598542,264.923077 C602.598542,265.985163 603.496304,266.846154 604.60375,266.846154 L607.467187,266.846154 C607.437583,266.972321 607.424116,267.101478 607.427083,267.230769 C607.427083,268.292855 608.324846,269.153846 609.432292,269.153846 L599.005208,269.153846 C597.897762,269.153846 597,270.014837 597,271.076923 C597,272.139009 597.897762,273 599.005208,273 L661.567708,273 C662.675154,273 663.572917,272.139009 663.572917,271.076923 C663.572917,270.014837 662.675154,269.153846 661.567708,269.153846 L671.994792,269.153846 C673.102238,269.153846 674,268.292855 674,267.230769 C674,266.168683 673.102238,265.307692 671.994792,265.307692 L671.97875,265.307692 Z" id="Path" fill="#07689F" opacity="0.1"></path>
                    <path d="M180.97875,299.307692 L178.123333,299.307692 C178.155637,299.181843 178.171798,299.052683 178.171458,298.923077 C178.167062,297.862742 177.27187,297.004216 176.16625,297 L113.60375,297 C112.496304,297 111.598542,297.860991 111.598542,298.923077 C111.598542,299.985163 112.496304,300.846154 113.60375,300.846154 L116.467187,300.846154 C116.437583,300.972321 116.424116,301.101478 116.427083,301.230769 C116.427083,302.292855 117.324846,303.153846 118.432292,303.153846 L108.005208,303.153846 C106.897762,303.153846 106,304.014837 106,305.076923 C106,306.139009 106.897762,307 108.005208,307 L170.567708,307 C171.675154,307 172.572917,306.139009 172.572917,305.076923 C172.572917,304.014837 171.675154,303.153846 170.567708,303.153846 L180.994792,303.153846 C182.102238,303.153846 183,302.292855 183,301.230769 C183,300.168683 182.102238,299.307692 180.994792,299.307692 L180.97875,299.307692 Z" id="Path" fill="#07689F" opacity="0.1"></path>
                    <path d="M571.97875,155.307692 L569.123333,155.307692 C569.155637,155.181843 569.171798,155.052683 569.171458,154.923077 C569.167062,153.862742 568.27187,153.004216 567.16625,153 L504.60375,153 C503.496304,153 502.598542,153.860991 502.598542,154.923077 C502.598542,155.985163 503.496304,156.846154 504.60375,156.846154 L507.467187,156.846154 C507.437583,156.972321 507.424116,157.101478 507.427083,157.230769 C507.427083,158.292855 508.324846,159.153846 509.432292,159.153846 L499.005208,159.153846 C497.897762,159.153846 497,160.014837 497,161.076923 C497,162.139009 497.897762,163 499.005208,163 L561.567708,163 C562.675154,163 563.572917,162.139009 563.572917,161.076923 C563.572917,160.014837 562.675154,159.153846 561.567708,159.153846 L571.994792,159.153846 C573.102238,159.153846 574,158.292855 574,157.230769 C574,156.168683 573.102238,155.307692 571.994792,155.307692 L571.97875,155.307692 Z" id="Path" fill="#07689F" opacity="0.1"></path>
                    <path d="M773.97875,351.307692 L771.123333,351.307692 C771.155637,351.181843 771.171798,351.052683 771.171458,350.923077 C771.167062,349.862742 770.27187,349.004216 769.16625,349 L706.60375,349 C705.496304,349 704.598542,349.860991 704.598542,350.923077 C704.598542,351.985163 705.496304,352.846154 706.60375,352.846154 L709.467187,352.846154 C709.437583,352.972321 709.424116,353.101478 709.427083,353.230769 C709.427083,354.292855 710.324846,355.153846 711.432292,355.153846 L701.005208,355.153846 C699.897762,355.153846 699,356.014837 699,357.076923 C699,358.139009 699.897762,359 701.005208,359 L763.567708,359 C764.675154,359 765.572917,358.139009 765.572917,357.076923 C765.572917,356.014837 764.675154,355.153846 763.567708,355.153846 L773.994792,355.153846 C775.102238,355.153846 776,354.292855 776,353.230769 C776,352.168683 775.102238,351.307692 773.994792,351.307692 L773.97875,351.307692 Z" id="Path" fill="#07689F" opacity="0.1"></path>
                    <path d="M627.97875,451.307692 L625.123333,451.307692 C625.155637,451.181843 625.171798,451.052683 625.171458,450.923077 C625.167062,449.862742 624.27187,449.004216 623.16625,449 L560.60375,449 C559.496304,449 558.598542,449.860991 558.598542,450.923077 C558.598542,451.985163 559.496304,452.846154 560.60375,452.846154 L563.467187,452.846154 C563.437583,452.972321 563.424116,453.101478 563.427083,453.230769 C563.427083,454.292855 564.324846,455.153846 565.432292,455.153846 L555.005208,455.153846 C553.897762,455.153846 553,456.014837 553,457.076923 C553,458.139009 553.897762,459 555.005208,459 L617.567708,459 C618.675154,459 619.572917,458.139009 619.572917,457.076923 C619.572917,456.014837 618.675154,455.153846 617.567708,455.153846 L627.994792,455.153846 C629.102238,455.153846 630,454.292855 630,453.230769 C630,452.168683 629.102238,451.307692 627.994792,451.307692 L627.97875,451.307692 Z" id="Path" fill="#07689F" opacity="0.1"></path>
                </g>
                <circle id="Oval" fill="#FACF0F" cx="316.5" cy="244.5" r="57.5"></circle>
            </g>
        </g>
    </g>
</svg>